{
  "accessors": [
    {
      "bufferView": 1,
      "componentType": 5126,
      "count": 242,
      "max": [
        0.99977999925613403,
        1,
        1
      ],
      "min": [
        -0.99796998500823975,
        -1,
        -1
      ],
      "type": "VEC3"
    },
    {
      "bufferView": 1,
      "byteOffset": 2904,
      "componentType": 5126,
      "count": 242,
      "max": [
        0.9944843053817749,
        0.99972325563430786,
        1
      ],
      "min": [
        -0.99479234218597412,
        -0.99982154369354248,
        -0.99999982118606567
      ],
      "type": "VEC3"
    },
    {
      "bufferView": 0,
      "componentType": 5125,
      "count": 1440,
      "max": [
        241
      ],
      "min": [
        0
      ],
      "type": "SCALAR"
    },
    {
      "bufferView": 1,
      "byteOffset": 5808,
      "componentType": 5126,
      "count": 192,
      "max": [
        1,
        1,
        0
      ],
      "min": [
        -1,
        -1,
        -0.012000000104308128
      ],
      "type": "VEC3"
    },
    {
      "bufferView": 1,
      "byteOffset": 8112,
      "componentType": 5126,
      "count": 192,
      "max": [
        0.72161990404129028,
        0.72161990404129028,
        0.72254484891891479
      ],
      "min": [
        -0.72161990404129028,
        -0.72161990404129028,
        -0.72254484891891479
      ],
      "type": "VEC3"
    },
    {
      "bufferView": 0,
      "byteOffset": 5760,
      "componentType": 5125,
      "count": 1152,
      "max": [
        191
      ],
      "min": [
        0
      ],
      "type": "SCALAR"
    },
    {
      "bufferView": 1,
      "byteOffset": 10416,
      "componentType": 5126,
      "count": 192,
      "max": [
        1,
        1,
        0
      ],
      "min": [
        -1,
        -1,
        -0.012000000104308128
      ],
      "type": "VEC3"
    },
    {
      "bufferView": 1,
      "byteOffset": 12720,
      "componentType": 5126,
      "count": 192,
      "max": [
        0.72161990404129028,
        0.72161990404129028,
        0.72254484891891479
      ],
      "min": [
        -0.72161990404129028,
        -0.72161990404129028,
        -0.72254484891891479
      ],
      "type": "VEC3"
    },
    {
      "bufferView": 0,
      "byteOffset": 10368,
      "componentType": 5125,
      "count": 1152,
      "max": [
        191
      ],
      "min": [
        0
      ],
      "type": "SCALAR"
    },
    {
      "bufferView": 1,
      "byteOffset": 15024,
      "componentType": 5126,
      "count": 192,
      "max": [
        1,
        1,
        0
      ],
      "min": [
        -1,
        -1,
        -0.012000000104308128
      ],
      "type": "VEC3"
    },
    {
      "bufferView": 1,
      "byteOffset": 17328,
      "componentType": 5126,
      "count": 192,
      "max": [
        0.72161990404129028,
        0.72161990404129028,
        0.72254484891891479
      ],
      "min": [
        -0.72161990404129028,
        -0.72161990404129028,
        -0.72254484891891479
      ],
      "type": "VEC3"
    },
    {
      "bufferView": 0,
      "byteOffset": 14976,
      "componentType": 5125,
      "count": 1152,
      "max": [
        191
      ],
      "min": [
        0
      ],
      "type": "SCALAR"
    },
    {
      "bufferView": 1,
      "byteOffset": 19632,
      "componentType": 5126,
      "count": 242,
      "max": [
        0.99977999925613403,
        1,
        1
      ],
      "min": [
        -0.99796998500823975,
        -1,
        -1
      ],
      "type": "VEC3"
    },
    {
      "bufferView": 1,
      "byteOffset": 22536,
      "componentType": 5126,
      "count": 242,
      "max": [
        0.9944843053817749,
        0.99972325563430786,
        1
      ],
      "min": [
        -0.99479234218597412,
        -0.99982154369354248,
        -0.99999982118606567
      ],
      "type": "VEC3"
    },
    {
      "bufferView": 0,
      "byteOffset": 19584,
      "componentType": 5125,
      "count": 1440,
      "max": [
        241
      ],
      "min": [
        0
      ],
      "type": "SCALAR"
    },
    {
      "bufferView": 1,
      "byteOffset": 25440,
      "componentType": 5126,
      "count": 242,
      "max": [
        0.99977999925613403,
        1,
        1
      ],
      "min": [
        -0.99796998500823975,
        -1,
        -1
      ],
      "type": "VEC3"
    },
    {
      "bufferView": 1,
      "byteOffset": 28344,
      "componentType": 5126,
      "count": 242,
      "max": [
        0.9944843053817749,
        0.99972325563430786,
        1
      ],
      "min": [
        -0.99479234218597412,
        -0.99982154369354248,
        -0.99999982118606567
      ],
      "type": "VEC3"
    },
    {
      "bufferView": 0,
      "byteOffset": 25344,
      "componentType": 5125,
      "count": 1440,
      "max": [
        241
      ],
      "min": [
        0
      ],
      "type": "SCALAR"
    },
    {
      "bufferView": 1,
      "byteOffset": 31248,
      "componentType": 5126,
      "count": 242,
      "max": [
        0.99977999925613403,
        1,
        1
      ],
      "min": [
        -0.99796998500823975,
        -1,
        -1
      ],
      "type": "VEC3"
    },
    {
      "bufferView": 1,
      "byteOffset": 34152,
      "componentType": 5126,
      "count": 242,
      "max": [
        0.9944843053817749,
        0.99972325563430786,
        1
      ],
      "min": [
        -0.99479234218597412,
        -0.99982154369354248,
        -0.99999982118606567
      ],
      "type": "VEC3"
    },
    {
      "bufferView": 0,
      "byteOffset": 31104,
      "componentType": 5125,
      "count": 1440,
      "max": [
        241
      ],
      "min": [
        0
      ],
      "type": "SCALAR"
    }
  ],
  "asset": {
    "extras": {
      "author": "rosaliarenda (https://sketchfab.com/rosaliarenda)",
      "license": "CC-BY-4.0 (http://creativecommons.org/licenses/by/4.0/)",
      "source": "https://sketchfab.com/3d-models/atom-82993cead2024da28265a6a1580325a5",
      "title": "atom"
    },
    "generator": "Sketchfab-5.86.0",
    "version": "2.0"
  },
  "bufferViews": [
    {
      "buffer": 0,
      "byteLength": 36864,
      "byteOffset": 0,
      "name": "floatBufferViews",
      "target": 34963
    },
    {
      "buffer": 0,
      "byteLength": 37056,
      "byteOffset": 36864,
      "byteStride": 12,
      "name": "floatBufferViews",
      "target": 34962
    }
  ],
  "buffers": [
    {
      "byteLength": 73920,
      "uri": "scene.bin"
    }
  ],
  "extensionsRequired": [
    "KHR_materials_pbrSpecularGlossiness"
  ],
  "extensionsUsed": [
    "KHR_materials_pbrSpecularGlossiness"
  ],
  "materials": [
    {
      "doubleSided": true,
      "emissiveFactor": [
        0,
        0,
        0
      ],
      "extensions": {
        "KHR_materials_pbrSpecularGlossiness": {
          "diffuseFactor": [
            0,
            0.2462429106,
            0.80000001190000003,
            1
          ],
          "glossinessFactor": 0.40000000000000002,
          "specularFactor": [
            0,
            0,
            0
          ]
        }
      },
      "name": "Material.003"
    },
    {
      "doubleSided": true,
      "emissiveFactor": [
        0,
        0,
        0
      ],
      "extensions": {
        "KHR_materials_pbrSpecularGlossiness": {
          "diffuseFactor": [
            0.80000001190000003,
            0.80000001190000003,
            0.80000001190000003,
            1
          ],
          "glossinessFactor": 0.40000000000000002,
          "specularFactor": [
            0,
            0,
            0
          ]
        }
      },
      "name": "Material.002"
    }
  ],
  "meshes": [
    {
      "name": "Sphere_0",
      "primitives": [
        {
          "attributes": {
            "NORMAL": 1,
            "POSITION": 0
          },
          "indices": 2,
          "material": 0,
          "mode": 4
        }
      ]
    },
    {
      "name": "BezierCircle.001_0",
      "primitives": [
        {
          "attributes": {
            "NORMAL": 4,
            "POSITION": 3
          },
          "indices": 5,
          "material": 1,
          "mode": 4
        }
      ]
    },
    {
      "name": "BezierCircle.002_0",
      "primitives": [
        {
          "attributes": {
            "NORMAL": 7,
            "POSITION": 6
          },
          "indices": 8,
          "material": 1,
          "mode": 4
        }
      ]
    },
    {
      "name": "BezierCircle.003_0",
      "primitives": [
        {
          "attributes": {
            "NORMAL": 10,
            "POSITION": 9
          },
          "indices": 11,
          "material": 1,
          "mode": 4
        }
      ]
    },
    {
      "name": "Sphere.002_0",
      "primitives": [
        {
          "attributes": {
            "NORMAL": 13,
            "POSITION": 12
          },
          "indices": 14,
          "material": 0,
          "mode": 4
        }
      ]
    },
    {
      "name": "Sphere.003_0",
      "primitives": [
        {
          "attributes": {
            "NORMAL": 16,
            "POSITION": 15
          },
          "indices": 17,
          "material": 0,
          "mode": 4
        }
      ]
    },
    {
      "name": "Sphere.004_0",
      "primitives": [
        {
          "attributes": {
            "NORMAL": 19,
            "POSITION": 18
          },
          "indices": 20,
          "material": 0,
          "mode": 4
        }
      ]
    }
  ],
  "nodes": [
    {
      "children": [
        1
      ],
      "name": "RootNode (gltf orientation matrix)",
      "rotation": [
        -0.70710678118654746,
        -0,
        -0,
        0.70710678118654757
      ]
    },
    {
      "children": [
        2
      ],
      "name": "RootNode (model correction matrix)"
    },
    {
      "children": [
        3,
        5,
        7,
        9,
        11,
        13,
        15,
        17,
        19
      ],
      "name": "Root"
    },
    {
      "children": [
        4
      ],
      "name": "Sphere"
    },
    {
      "mesh": 0,
      "name": "Sphere_0"
    },
    {
      "children": [
        6
      ],
      "matrix": [
        1.8137099999999999,
        -0,
        3.1414300000000002,
        0,
        0,
        3.6274100000000002,
        0,
        0,
        -3.1414300000000002,
        0,
        1.8137099999999999,
        0,
        0,
        0,
        0,
        1
      ],
      "name": "BezierCircle.001"
    },
    {
      "mesh": 1,
      "name": "BezierCircle.001_0"
    },
    {
      "children": [
        8
      ],
      "matrix": [
        -1.8999999999999999,
        -0,
        3.2909000000000002,
        0,
        0,
        3.7999999999999998,
        0,
        0,
        -3.2909000000000002,
        0,
        -1.8999999999999999,
        0,
        0,
        0,
        0,
        1
      ],
      "name": "BezierCircle.002"
    },
    {
      "mesh": 2,
      "name": "BezierCircle.002_0"
    },
    {
      "children": [
        10
      ],
      "matrix": [
        3.9783900000000001,
        0,
        0,
        0,
        0,
        3.9783900000000001,
        0,
        0,
        0,
        0,
        3.9783900000000001,
        0,
        0,
        0,
        0,
        1
      ],
      "name": "BezierCircle.003"
    },
    {
      "mesh": 3,
      "name": "BezierCircle.003_0"
    },
    {
      "children": [
        12
      ],
      "matrix": [
        0.30000000000000004,
        0,
        0,
        0,
        0,
        0.30000000000000004,
        0,
        0,
        0,
        0,
        0.30000000000000004,
        0,
        3.8999999999999999,
        0,
        0,
        1
      ],
      "name": "Sphere.002"
    },
    {
      "mesh": 4,
      "name": "Sphere.002_0"
    },
    {
      "children": [
        14
      ],
      "matrix": [
        0.30000000000000004,
        0,
        0,
        0,
        0,
        0.30000000000000004,
        0,
        0,
        0,
        0,
        0.30000000000000004,
        0,
        -1.8999999999999999,
        0,
        3.29,
        1
      ],
      "name": "Sphere.003"
    },
    {
      "mesh": 5,
      "name": "Sphere.003_0"
    },
    {
      "children": [
        16
      ],
      "matrix": [
        0.30000000000000004,
        0,
        0,
        0,
        0,
        0.30000000000000004,
        0,
        0,
        0,
        0,
        0.30000000000000004,
        0,
        -1.8100000000000001,
        0,
        -3.1400000000000001,
        1
      ],
      "name": "Sphere.004"
    },
    {
      "mesh": 6,
      "name": "Sphere.004_0"
    },
    {
      "children": [
        18
      ],
      "matrix": [
        1,
        0,
        0,
        0,
        0,
        1,
        0,
        0,
        0,
        0,
        1,
        0,
        0,
        0,
        10,
        1
      ],
      "name": "Point"
    },
    {
      "name": "Point"
    },
    {
      "children": [
        20
      ],
      "matrix": [
        -1,
        0,
        0,
        0,
        0,
        1,
        0,
        0,
        -0,
        0,
        -1,
        0,
        0,
        0,
        -19,
        1
      ],
      "name": "Point.001"
    },
    {
      "name": "Point.001"
    }
  ],
  "scene": 0,
  "scenes": [
    {
      "name": "OSG_Scene",
      "nodes": [
        0
      ]
    }
  ]
}

